<?xml version="1.0" encoding="iso-8859-1"?>
<!-- Generator: Adobe Illustrator 19.0.0, SVG Export Plug-In . SVG Version: 6.00 Build 0)  -->
<svg version="1.1" id="Layer_1" xmlns="http://www.w3.org/2000/svg" xmlns:xlink="http://www.w3.org/1999/xlink" x="0px" y="0px"
	 viewBox="0 0 351.4 351.4" style="enable-background:new 0 0 351.4 351.4;" xml:space="preserve">
<g id="XMLID_1392_">
	<g id="XMLID_1393_">
		<g id="XMLID_1394_">
			<path id="XMLID_1395_" style="fill:#00969B;" d="M127.93,139.661c14.368-7.222,30.592-11.294,47.77-11.294
				c8.027,0,15.845,0.894,23.365,2.577L95.823,13.51C93.498,11.269,90.268,10,86.89,10H38.47c-10.817,0-16.38,11.84-8.933,19.016
				l94.816,110.646h3.577V139.661z"/>
			<path id="XMLID_1396_" style="fill:#1F2C47;" d="M130.302,149.661h-10.55L22.209,35.833c-5.939-6.002-7.696-14.455-4.575-22.192
				C20.977,5.354,29.155,0,38.469,0h48.42c5.926,0,11.711,2.3,15.872,6.309l0.572,0.599l123.528,140.508l-29.98-6.712
				c-6.922-1.55-14.048-2.336-21.181-2.336c-15.216,0-29.777,3.441-43.279,10.229L130.302,149.661z M38.469,20
				c-1.747,0-2.212,0.936-2.288,1.123c-0.079,0.196-0.119,0.294,0.294,0.692l0.654,0.693l90.873,106.044
				c14.711-6.625,30.392-10.047,46.694-10.182L88.702,20.556C88.239,20.205,87.58,20,86.889,20H38.469z"/>
		</g>
		<g id="XMLID_1399_">
			<path id="XMLID_1400_" style="fill:#00969B;" d="M312.931,10h-48.42c-3.378,0-6.608,1.27-8.933,3.51L152.335,130.944
				c7.52-1.683,15.338-2.577,23.365-2.577c17.177,0,33.402,4.072,47.77,11.294h3.578l94.816-110.646
				C329.311,21.84,323.748,10,312.931,10z"/>
			<path id="XMLID_1401_" style="fill:#1F2C47;" d="M231.648,149.661h-10.55l-2.119-1.065
				c-13.501-6.787-28.062-10.229-43.278-10.229c-7.132,0-14.258,0.786-21.181,2.336l-29.979,6.712l123.8-140.82l0.3-0.288
				C252.802,2.299,258.587,0,264.511,0h48.42c9.314,0,17.493,5.354,20.836,13.641c3.121,7.737,1.363,16.19-4.575,22.193
				L231.648,149.661z M176.703,118.371c16.304,0.135,31.984,3.556,46.694,10.182l91.184-106.406l0.344-0.331
				c0.413-0.398,0.373-0.496,0.295-0.691c-0.076-0.188-0.542-1.124-2.289-1.124h-48.42c-0.69,0-1.35,0.205-1.813,0.557
				L176.703,118.371z"/>
		</g>
	</g>
	<g id="XMLID_1404_">
		<g id="XMLID_1405_">
			<path id="XMLID_1406_" style="fill:#1F2C47;" d="M175.7,351.4c-64.248,0-116.517-52.27-116.517-116.517
				s52.27-116.516,116.517-116.516s116.517,52.27,116.517,116.517S239.947,351.4,175.7,351.4z M175.7,138.367
				c-53.219,0-96.517,43.297-96.517,96.517S122.481,331.4,175.7,331.4c53.22,0,96.517-43.297,96.517-96.517
				S228.92,138.367,175.7,138.367z"/>
		</g>
		<g id="XMLID_1409_">
			<path id="XMLID_1410_" style="fill:#1F2C47;" d="M175.7,310.4c-41.64,0-75.517-33.877-75.517-75.517s33.876-75.517,75.517-75.517
				v20c-30.612,0-55.517,24.904-55.517,55.517S145.088,290.4,175.7,290.4s55.517-24.904,55.517-55.517h20
				C251.217,276.523,217.34,310.4,175.7,310.4z"/>
		</g>
		<g id="XMLID_1411_">
			<path id="XMLID_1412_" style="fill:#1F2C47;" d="M175.7,351.4c-64.248,0-116.517-52.27-116.517-116.517
				s52.27-116.516,116.517-116.516s116.517,52.27,116.517,116.517S239.947,351.4,175.7,351.4z M175.7,138.367
				c-53.219,0-96.517,43.297-96.517,96.517S122.481,331.4,175.7,331.4c53.22,0,96.517-43.297,96.517-96.517
				S228.92,138.367,175.7,138.367z"/>
		</g>
	</g>
</g>
<g>
</g>
<g>
</g>
<g>
</g>
<g>
</g>
<g>
</g>
<g>
</g>
<g>
</g>
<g>
</g>
<g>
</g>
<g>
</g>
<g>
</g>
<g>
</g>
<g>
</g>
<g>
</g>
<g>
</g>
</svg>
